<svg width="150" height="150" viewBox="0 0 150 150" fill="none" xmlns="http://www.w3.org/2000/svg">
<path d="M147.177 68.3197L81.6803 2.82257C79.8664 1.01497 77.4101 0 74.8493 0C72.2886 0 69.8322 1.01497 68.0183 2.82257L54.3898 16.4176L71.6347 33.6625C80.7092 30.6153 89.2814 39.288 86.1673 48.2955L102.809 64.9377C114.261 60.9864 123.302 75.3181 114.697 83.9238C105.823 92.7974 91.1901 82.9527 95.945 71.4338L80.4079 55.8967V96.7152C88.8796 100.901 87.8751 110.745 83.455 115.132C82.3879 116.203 81.1198 117.053 79.7235 117.633C78.3272 118.213 76.8301 118.512 75.3181 118.512C73.8061 118.512 72.309 118.213 70.9127 117.633C69.5164 117.053 68.2483 116.203 67.1812 115.132C61.2878 109.239 63.4643 99.4275 70.965 96.3803V55.1935C64.0001 52.3472 62.7277 44.9135 64.7368 40.1251L47.7263 23.0811L2.82257 67.9848C1.01497 69.7987 0 72.2551 0 74.8158C0 77.3766 1.01497 79.833 2.82257 81.6468L68.3197 147.144C70.1336 148.952 72.5899 149.967 75.1507 149.967C77.7114 149.967 80.1678 148.952 81.9817 147.144L147.177 81.9482C148.985 80.1343 150 77.678 150 75.1172C150 72.5564 148.985 70.1001 147.177 68.2862V68.3197Z" fill="#E10909"/>
</svg>
