<svg width="150" height="147" viewBox="0 0 150 147" fill="none" xmlns="http://www.w3.org/2000/svg">
<path d="M50.1714 117.762C50.1714 118.367 49.4758 118.851 48.5988 118.851C47.6008 118.942 46.9052 118.458 46.9052 117.762C46.9052 117.157 47.6008 116.673 48.4778 116.673C49.3851 116.583 50.1714 117.067 50.1714 117.762ZM40.7661 116.401C40.5544 117.006 41.1593 117.702 42.0665 117.883C42.8528 118.185 43.7601 117.883 43.9415 117.278C44.123 116.673 43.5484 115.978 42.6411 115.706C41.8548 115.494 40.9778 115.796 40.7661 116.401ZM54.1331 115.887C53.2561 116.099 52.6512 116.673 52.7419 117.369C52.8327 117.974 53.619 118.367 54.5262 118.155C55.4032 117.944 56.0081 117.369 55.9173 116.764C55.8266 116.19 55.0101 115.796 54.1331 115.887ZM74.0323 0C32.0867 0 0 31.8448 0 73.7903C0 107.329 21.1089 136.028 51.2601 146.129C55.1311 146.825 56.4919 144.435 56.4919 142.47C56.4919 140.595 56.4012 130.252 56.4012 123.901C56.4012 123.901 35.2319 128.438 30.7863 114.889C30.7863 114.889 27.3387 106.089 22.379 103.821C22.379 103.821 15.4536 99.0726 22.8629 99.1633C22.8629 99.1633 30.3931 99.7682 34.5363 106.966C41.1593 118.639 52.2581 115.282 56.5827 113.286C57.2782 108.448 59.244 105.091 61.4214 103.095C44.5161 101.22 27.4597 98.7702 27.4597 69.6774C27.4597 61.3609 29.7581 57.1875 34.5968 51.8649C33.8105 49.8992 31.2399 41.7944 35.3831 31.3306C41.7036 29.3649 56.25 39.496 56.25 39.496C62.2984 37.8024 68.8004 36.9254 75.2419 36.9254C81.6835 36.9254 88.1855 37.8024 94.2339 39.496C94.2339 39.496 108.78 29.3347 115.101 31.3306C119.244 41.8246 116.673 49.8992 115.887 51.8649C120.726 57.2177 123.69 61.3911 123.69 69.6774C123.69 98.8609 105.877 101.19 88.9718 103.095C91.754 105.484 94.1129 110.02 94.1129 117.127C94.1129 127.319 94.0222 139.929 94.0222 142.409C94.0222 144.375 95.4133 146.764 99.254 146.069C129.496 136.028 150 107.329 150 73.7903C150 31.8448 115.978 0 74.0323 0ZM29.3952 104.304C29.002 104.607 29.0927 105.302 29.6069 105.877C30.0907 106.361 30.7863 106.573 31.1794 106.179C31.5726 105.877 31.4819 105.181 30.9677 104.607C30.4839 104.123 29.7883 103.911 29.3952 104.304ZM26.129 101.855C25.9173 102.248 26.2198 102.732 26.8246 103.034C27.3085 103.337 27.9133 103.246 28.125 102.823C28.3367 102.429 28.0343 101.946 27.4294 101.643C26.8246 101.462 26.3407 101.552 26.129 101.855ZM35.9274 112.621C35.4436 113.014 35.625 113.921 36.3206 114.496C37.0161 115.192 37.8931 115.282 38.2863 114.798C38.6794 114.405 38.498 113.498 37.8931 112.923C37.2278 112.228 36.3206 112.137 35.9274 112.621ZM32.4798 108.175C31.996 108.478 31.996 109.264 32.4798 109.96C32.9637 110.655 33.7802 110.958 34.1734 110.655C34.6573 110.262 34.6573 109.476 34.1734 108.78C33.75 108.085 32.9637 107.782 32.4798 108.175Z" fill="black"/>
</svg>
