<svg width="150" height="150" viewBox="0 0 150 150" fill="none" xmlns="http://www.w3.org/2000/svg">
<path d="M0 0V150H150V0H0ZM81.6295 116.987C81.6295 131.585 73.058 138.248 60.5692 138.248C49.2857 138.248 42.7567 132.422 39.4085 125.357L50.8929 118.426C53.1027 122.344 55.1116 125.658 59.9665 125.658C64.5871 125.658 67.5335 123.85 67.5335 116.786V68.8728H81.6295V116.987ZM114.978 138.248C101.886 138.248 93.4152 132.02 89.2969 123.85L100.781 117.221C103.795 122.143 107.746 125.792 114.676 125.792C120.502 125.792 124.252 122.879 124.252 118.828C124.252 114.007 120.435 112.299 113.973 109.453L110.458 107.946C100.279 103.627 93.5491 98.1696 93.5491 86.6853C93.5491 76.1049 101.618 68.0692 114.174 68.0692C123.147 68.0692 129.576 71.183 134.196 79.3527L123.214 86.3839C120.804 82.0647 118.192 80.3571 114.141 80.3571C110.022 80.3571 107.411 82.9688 107.411 86.3839C107.411 90.6027 110.022 92.3103 116.083 94.9554L119.598 96.4621C131.585 101.585 138.315 106.842 138.315 118.627C138.315 131.283 128.337 138.248 114.978 138.248Z" fill="#FFD43B"/>
</svg>
