<svg width="150" height="150" viewBox="0 0 150 150" fill="none" xmlns="http://www.w3.org/2000/svg">
<path d="M144.072 33.2367L82.2533 1.47371C78.3547 -0.491238 73.2785 -0.491238 69.3491 1.47371L6.87056 33.2367C2.8472 35.2848 0 39.1341 0 43.2513V106.693C0 110.81 2.9215 114.661 6.94486 116.72L23.4519 125.016C31.3416 128.455 34.1299 128.455 37.7201 128.455C49.4019 128.455 56.0748 122.204 56.0748 111.301V48.6685C56.0748 47.7841 55.5547 46.4679 54.5734 46.4679H46.6907C45.6925 46.4679 43.4579 47.7841 43.4579 48.6673V111.3C43.4579 116.133 38.5178 120.943 29.285 116.858L12.2285 108.158C11.6341 107.873 11.215 107.298 11.215 106.693V43.2513C11.215 42.6533 11.993 42.0529 12.5916 41.7465L74.8682 10.0381C75.45 9.74661 76.3051 9.74661 76.8855 10.0381L138.402 41.7391C138.991 42.0529 138.784 42.6347 138.784 43.2513V106.693C138.784 107.298 139.04 107.888 138.458 108.179L76.6556 139.906C76.1257 140.188 75.4682 140.188 74.8878 139.906L59.0369 131.534C58.5589 131.288 57.9911 131.2 57.5327 131.427C53.1224 133.639 52.3093 133.933 48.1724 135.202C47.1547 135.516 45.6533 136.061 48.7472 137.595L69.4921 148.454C71.4726 149.467 73.7194 150 76.0065 150C78.3084 150 80.5626 149.472 82.5491 148.454L144.07 116.72C148.093 114.646 150 110.81 150 106.693V43.2513C150 39.1341 148.093 35.2947 144.072 33.2367ZM95.2009 96.6399C78.7626 96.6399 75.1416 92.6269 73.9346 85.3935C73.7944 84.6145 73.0472 83.6829 72.1514 83.6829H64.1173C63.1234 83.6829 62.3243 84.7497 62.3243 85.6255C62.3243 94.8871 68.0145 106.109 95.2023 106.109C114.883 106.109 126.167 99.3417 126.167 87.3659C126.167 75.4919 117.101 72.3757 98.0145 70.1403C78.722 67.8839 76.7622 66.7439 76.7622 62.7445C76.7622 59.4472 78.422 55.0497 92.707 55.0497C105.471 55.0497 110.176 57.4736 112.112 65.0865C112.277 65.8023 113.016 66.3159 113.85 66.3159H121.916C122.413 66.3159 122.886 66.1385 123.234 65.8246C123.571 65.4872 123.749 65.0642 123.704 64.6102C122.455 51.5006 112.612 45.3911 92.7056 45.3911C74.9986 45.3911 64.4355 52.008 64.4355 63.0993C64.4355 75.1296 74.9453 78.4542 91.943 79.9415C112.277 81.7055 113.858 84.3354 113.858 87.8745C113.858 94.0212 108.282 96.6399 95.2009 96.6399Z" fill="#83CD29"/>
</svg>
