<svg width="150" height="150" viewBox="0 0 150 150" fill="none" xmlns="http://www.w3.org/2000/svg">
<path d="M140.149 61.3779C141.848 56.3277 142.436 50.978 141.872 45.6861C141.308 40.3942 139.606 35.2819 136.88 30.6904C132.837 23.749 126.664 18.2532 119.251 14.9957C111.837 11.7382 103.567 10.8872 95.6315 12.5654C91.1244 7.6196 85.3776 3.93044 78.9679 1.86835C72.5583 -0.193753 65.7115 -0.556213 59.1149 0.817358C52.5184 2.19093 46.4042 5.25218 41.3864 9.69377C36.3686 14.1353 32.6237 19.8009 30.5277 26.1217C25.2409 27.1908 20.2464 29.3608 15.8779 32.4864C11.5094 35.6121 7.86761 39.6215 5.19581 44.2467C1.10868 51.1766 -0.638025 59.2092 0.208268 67.1829C1.05456 75.1567 4.44999 82.6583 9.90356 88.6029C8.19579 93.6511 7.60063 99.0008 8.15792 104.294C8.7152 109.587 10.4121 114.702 13.135 119.297C17.183 126.241 23.3617 131.738 30.7805 134.995C38.1993 138.252 46.475 139.102 54.4149 137.422C57.9962 141.402 62.3971 144.582 67.3239 146.751C72.2506 148.919 77.5897 150.026 82.9846 149.997C91.1182 150.004 99.0437 147.462 105.617 142.737C112.191 138.012 117.072 131.349 119.557 123.709C124.842 122.637 129.834 120.466 134.201 117.341C138.568 114.215 142.21 110.207 144.882 105.584C148.921 98.665 150.638 90.6633 149.788 82.7235C148.938 74.7836 145.564 67.3123 140.149 61.3779ZM82.9846 140.184C76.3251 140.195 69.874 137.894 64.7618 133.684L65.6552 133.178L95.9356 115.94C96.688 115.504 97.3125 114.882 97.7479 114.136C98.1833 113.39 98.4147 112.545 98.4194 111.684V69.5779L111.218 76.8779C111.282 76.9095 111.336 76.9555 111.378 77.0119C111.42 77.0684 111.448 77.1339 111.459 77.2029V112.097C111.442 119.541 108.437 126.675 103.101 131.939C97.7643 137.203 90.5314 140.168 82.9846 140.184ZM21.7775 114.397C18.4352 108.707 17.2348 102.036 18.3876 95.5592L19.2874 96.0904L49.5931 113.334C50.3425 113.768 51.1955 113.996 52.0642 113.996C52.9329 113.996 53.7859 113.768 54.5353 113.334L91.5574 92.2779V106.853C91.5547 106.929 91.5345 107.003 91.4982 107.071C91.462 107.138 91.4107 107.196 91.3483 107.24L60.6814 124.684C54.1374 128.4 46.3663 129.404 39.0729 127.476C31.7795 125.547 25.5595 120.843 21.7775 114.397ZM13.7939 49.3467C17.1583 43.6192 22.4688 39.2509 28.7852 37.0154V72.4967C28.7742 73.3535 28.9965 74.1975 29.4289 74.9407C29.8614 75.6838 30.4881 76.2989 31.2437 76.7217L68.0883 97.6904L55.2893 104.99C55.22 105.027 55.1428 105.045 55.0644 105.045C54.986 105.045 54.9088 105.027 54.8394 104.99L24.2359 87.5779C17.7017 83.8447 12.9338 77.7091 10.9766 70.5151C9.01943 63.3212 10.0325 55.6553 13.7939 49.1967V49.3467ZM118.955 73.4404L81.9961 52.2717L94.7635 44.9967C94.8328 44.9605 94.91 44.9417 94.9884 44.9417C95.0668 44.9417 95.144 44.9605 95.2133 44.9967L125.817 62.4404C130.499 65.1025 134.316 69.0238 136.823 73.7462C139.33 78.4686 140.422 83.7972 139.973 89.1094C139.524 94.4216 137.552 99.498 134.286 103.746C131.021 107.993 126.598 111.236 121.534 113.097V77.6092C121.507 76.7534 121.255 75.9191 120.803 75.1883C120.351 74.4574 119.714 73.8551 118.955 73.4404ZM131.69 54.5467L130.797 54.0154L100.548 36.6279C99.7941 36.1917 98.9357 35.9618 98.0614 35.9618C97.1871 35.9618 96.3287 36.1917 95.5745 36.6279L58.5841 57.6842V43.1029C58.5764 43.0295 58.5888 42.9554 58.62 42.8884C58.6512 42.8213 58.7001 42.7638 58.7615 42.7217L89.3651 25.3029C94.056 22.6399 99.4185 21.349 104.826 21.5809C110.233 21.8128 115.462 23.558 119.9 26.6125C124.339 29.667 127.805 33.9047 129.893 38.8303C131.981 43.7558 132.604 49.1658 131.69 54.4279V54.5467ZM51.6017 80.3904L38.8027 73.1154C38.7383 73.0773 38.6833 73.0256 38.6417 72.964C38.6 72.9024 38.5728 72.8324 38.5619 72.7592V37.9654C38.5725 32.6285 40.1223 27.4048 43.0303 22.9043C45.9383 18.4038 50.0844 14.8123 54.9843 12.5493C59.8843 10.2863 65.3359 9.4452 70.7024 10.1243C76.0688 10.8033 81.1287 12.9745 85.2909 16.3842L84.3912 16.8842L54.1171 34.1217C53.3636 34.5573 52.7379 35.1787 52.3013 35.9249C51.8647 36.6711 51.6324 37.5164 51.627 38.3779L51.6017 80.3904ZM58.5524 65.6092L75.0391 56.2342L91.5574 65.6092V84.3529L75.1024 93.7279L58.5841 84.3529L58.5524 65.6092Z" fill="white"/>
</svg>
