<svg width="150" height="132" viewBox="0 0 150 132" fill="none" xmlns="http://www.w3.org/2000/svg">
<path d="M122.52 42.5354C120.938 42.0081 119.355 41.51 117.773 41.0413C118.037 39.9573 118.271 38.8733 118.506 37.7893C122.109 20.3284 119.736 6.29516 111.738 1.66626C104.033 -2.75757 91.4648 1.84204 78.75 12.9163C77.4902 14.0002 76.2598 15.1428 75.0879 16.2854C74.2969 15.5237 73.4766 14.762 72.6562 14.0295C59.3262 2.1936 45.9668 -2.78687 37.9688 1.87134C30.293 6.32446 28.0078 19.5374 31.2305 36.0608C31.5527 37.7014 31.9043 39.3127 32.3145 40.9534C30.4395 41.4807 28.5937 42.0666 26.8652 42.6819C11.2207 48.1018 0 56.6565 0 65.5041C0 74.6448 11.9531 83.8147 28.2129 89.3811C29.5313 89.8206 30.8496 90.26 32.1973 90.6409C31.7578 92.3987 31.377 94.1272 31.0254 95.9143C27.9492 112.174 30.3516 125.065 38.0273 129.489C45.9375 134.059 59.2383 129.371 72.1875 118.033C73.2129 117.125 74.2383 116.188 75.2637 115.192C76.5527 116.451 77.9004 117.653 79.248 118.824C91.7871 129.606 104.18 133.971 111.826 129.547C119.736 124.977 122.314 111.119 118.975 94.2444C118.711 92.9553 118.418 91.637 118.096 90.2893C119.033 90.0256 119.941 89.7327 120.85 89.4397C137.754 83.844 150 74.7913 150 65.5041C150 56.6272 138.457 48.0139 122.52 42.5354ZM82.8809 17.6624C93.7793 8.17017 103.945 4.44946 108.574 7.11548C113.525 9.95727 115.43 21.4416 112.324 36.5295C112.119 37.5256 111.914 38.4924 111.65 39.4592C105.146 37.9944 98.5547 36.9397 91.9336 36.3538C88.125 30.9045 83.9648 25.6897 79.4531 20.7971C80.5957 19.7131 81.709 18.6877 82.8809 17.6624ZM48.9844 80.7092C50.4785 83.2581 52.002 85.8069 53.6133 88.2971C49.043 87.7991 44.502 87.0666 40.0195 86.0998C41.3086 81.8811 42.9199 77.5159 44.7949 73.0627C46.1426 75.6409 47.5195 78.1897 48.9844 80.7092ZM40.1074 45.4651C44.3262 44.5276 48.8086 43.7659 53.4668 43.1799C51.9141 45.6116 50.3906 48.1018 48.9551 50.6213C47.5195 53.1116 46.1133 55.6604 44.7949 58.2385C42.9492 53.8733 41.3965 49.5959 40.1074 45.4651ZM48.1348 65.6506C50.0684 61.6077 52.1777 57.6526 54.4043 53.7561C56.6309 49.8596 59.0332 46.0803 61.5527 42.3596C65.9473 42.0374 70.4297 41.8616 75 41.8616C79.5703 41.8616 84.082 42.0374 88.4473 42.3596C90.9375 46.051 93.3106 49.8303 95.5664 53.6975C97.8223 57.5647 99.9316 61.5198 101.924 65.5334C99.9609 69.5764 97.8516 73.5608 95.5957 77.4866C93.3691 81.3831 90.9961 85.1623 88.5059 88.9123C84.1406 89.2346 79.5996 89.3811 75 89.3811C70.4004 89.3811 65.9473 89.2346 61.6406 88.9709C59.0918 85.2502 56.6895 81.4417 54.4336 77.5452C52.1777 73.6487 50.0977 69.6936 48.1348 65.6506ZM101.045 80.6506C102.539 78.0725 103.945 75.4651 105.322 72.8284C107.197 77.0764 108.838 81.3831 110.273 85.8069C105.732 86.8323 101.133 87.6233 96.5039 88.1506C98.0859 85.6897 99.5801 83.1702 101.045 80.6506ZM105.264 58.2385C103.887 55.6604 102.48 53.0823 101.016 50.5627C99.5801 48.0725 98.0859 45.6116 96.5332 43.1799C101.25 43.7659 105.762 44.5569 109.98 45.5237C108.633 49.8596 107.051 54.0784 105.264 58.2385ZM75.0586 25.2795C78.1348 28.6194 81.0352 32.135 83.7305 35.7678C77.9297 35.5042 72.0996 35.5042 66.2988 35.7678C69.1699 31.9885 72.1289 28.4729 75.0586 25.2795ZM41.0742 7.32056C45.9961 4.44946 56.9238 8.55102 68.4375 18.7463C69.1699 19.3909 69.9023 20.094 70.6641 20.7971C66.123 25.6897 61.9336 30.9045 58.0957 36.3538C51.4746 36.9397 44.9121 37.9651 38.4082 39.4006C38.0273 37.9065 37.7051 36.3831 37.3828 34.8596C34.6289 20.6799 36.4453 9.98657 41.0742 7.32056ZM33.8965 84.5471C32.666 84.1956 31.4648 83.8147 30.2637 83.4045C24.0234 81.4417 16.9336 78.3362 11.8066 74.2639C8.84766 72.2131 6.85547 69.0491 6.29883 65.5041C6.29883 60.1428 15.5566 53.2873 28.916 48.6291C30.5859 48.0432 32.2852 47.5159 33.9844 47.0178C35.9766 53.3752 38.3789 59.6155 41.1621 65.6506C38.3496 71.7737 35.918 78.1018 33.8965 84.5471ZM68.0566 113.258C63.2227 117.682 57.627 121.198 51.5332 123.6C48.2812 125.153 44.5313 125.299 41.1914 123.981C36.5332 121.285 34.5996 110.944 37.2363 97.0276C37.5586 95.387 37.9102 93.7463 38.3203 92.135C44.8828 93.5413 51.5039 94.508 58.2129 95.0061C62.0801 100.485 66.3281 105.729 70.8691 110.651C69.9316 111.559 68.9941 112.438 68.0566 113.258ZM75.2344 106.139C72.2461 102.916 69.2578 99.342 66.3574 95.5041C69.1699 95.6213 72.0703 95.6799 75 95.6799C78.0176 95.6799 80.9766 95.6213 83.9062 95.4748C81.2109 99.1956 78.3105 102.74 75.2344 106.139ZM113.525 114.928C113.262 118.502 111.504 121.842 108.691 124.098C104.033 126.793 94.1016 123.278 83.3789 114.078C82.1484 113.024 80.918 111.881 79.6582 110.709C84.1406 105.758 88.2715 100.514 92.0215 95.0061C98.7305 94.4495 105.41 93.4241 112.002 91.9299C112.295 93.1311 112.559 94.3323 112.793 95.5041C114.229 101.832 114.463 108.424 113.525 114.928ZM118.857 83.4338C118.037 83.6975 117.217 83.9612 116.367 84.1956C114.316 77.8088 111.797 71.5686 108.896 65.5041C111.709 59.5276 114.082 53.3752 116.074 47.0764C117.598 47.5159 119.063 47.9846 120.469 48.4534C134.121 53.1409 143.701 60.1135 143.701 65.4456C143.701 71.1877 133.477 78.5998 118.857 83.4338ZM75 79.0393C82.4121 79.0393 88.418 73.0334 88.418 65.6213C88.418 58.2092 82.4121 52.2034 75 52.2034C67.5879 52.2034 61.582 58.2092 61.582 65.6213C61.582 73.0334 67.5879 79.0393 75 79.0393Z" fill="#3A68F2"/>
</svg>
