<svg width="720" height="456" viewBox="0 0 720 456" fill="none" xmlns="http://www.w3.org/2000/svg">
<g clip-path="url(#clip0_151_8)">
<path d="M602.854 35.6998H0.670532C1.52107 30.873 3.18212 26.3067 5.50365 22.1709C12.9185 8.95247 27.0578 0 43.2583 0H560.266C576.456 0 590.606 8.95247 598.01 22.1709C600.332 26.3067 602.003 30.873 602.854 35.6998Z" fill="#F2F2F2"/>
<path d="M720 454.333C720 454.994 719.47 455.525 718.809 455.525H471.358C470.697 455.525 470.167 454.994 470.167 454.333C470.167 454.012 470.287 453.732 470.487 453.522H560.266C562.177 453.522 564.048 453.392 565.89 453.141H718.809C719.47 453.141 720 453.672 720 454.333Z" fill="#3F3D56"/>
<path d="M442.507 211.435H161.01C158.393 211.435 156.265 208.739 156.265 205.426C156.265 202.113 158.393 199.418 161.01 199.418H442.507C445.124 199.418 447.252 202.113 447.252 205.426C447.252 208.739 445.124 211.435 442.507 211.435Z" fill="#E6E6E6"/>
<path d="M602.854 35.6998C602.003 30.873 600.332 26.3067 598.01 22.1709C590.606 8.95247 576.456 0 560.266 0H43.2583C27.0577 0 12.9185 8.95247 5.50359 22.1709C3.18207 26.3067 1.52101 30.873 0.670478 35.6998C0.23019 38.1631 0 40.6967 0 43.2903V412.234C0 436.108 19.4027 455.525 43.2583 455.525H560.266C565.209 455.525 569.972 454.683 574.405 453.141C591.336 447.273 603.524 431.151 603.524 412.234V43.2903C603.524 40.7067 603.294 38.1631 602.854 35.6998ZM601.523 412.234C601.523 433.123 586.013 450.397 565.889 453.141C564.048 453.392 562.177 453.522 560.266 453.522H104.708C47.9813 453.522 2.00131 407.498 2.00131 350.729V43.2903C2.00131 40.6967 2.24145 38.1631 2.70177 35.6998C3.60238 30.8329 5.35352 26.2766 7.80508 22.1709C14.9998 10.0941 28.1884 2.00279 43.2583 2.00279H560.266C575.336 2.00279 588.524 10.0941 595.719 22.1709C598.17 26.2766 599.922 30.8329 600.822 35.6998C601.282 38.1631 601.523 40.6967 601.523 43.2903V412.234Z" fill="#3F3D56"/>
<path d="M576.302 216.381L572.916 203.956L588.154 198.308L589.847 209.604L576.302 216.381Z" fill="#FFB6B6"/>
<path opacity="0.1" d="M576.302 216.381L572.916 203.956L581.89 200.168L579.102 214.816L576.302 216.381Z" fill="black"/>
<path d="M531.697 322.867C528.786 321.134 528.633 316.019 531.354 311.442C532.545 309.439 534.09 307.871 535.694 306.886L537.292 304.273L557.507 268.007C557.507 268.007 566.356 233.803 569.959 229.667C573.561 225.531 578.77 226.506 578.77 226.506L583.39 230.613L566.9 279.058L546.551 307.736L543.824 311.727C543.725 313.608 543.085 315.714 541.894 317.718C539.172 322.295 534.607 324.6 531.697 322.867Z" fill="#FFB6B6"/>
<path d="M575.469 212.832C575.469 212.832 581.899 212.583 585.956 217.582C590.013 222.58 568.76 278.916 568.76 278.916L551.449 278.303L575.469 212.832Z" fill="#424242"/>
<path d="M577.149 205.933C585.876 205.933 592.951 198.853 592.951 190.119C592.951 181.386 585.876 174.306 577.149 174.306C568.422 174.306 561.347 181.386 561.347 190.119C561.347 198.853 568.422 205.933 577.149 205.933Z" fill="#FFB6B6"/>
<path d="M540.184 419.698L529.461 446.243L523.253 440.03L520.996 428.17L530.025 416.875L540.184 419.698Z" fill="#FFB6B6"/>
<path d="M640.639 410.097L651.361 422.522L646.282 432.688L634.995 430.994L629.352 415.18L640.639 410.097Z" fill="#FFB6B6"/>
<path d="M569.248 261.845L567.837 284.718L602.827 278.506L600.57 264.386L569.248 261.845Z" fill="#FFB6B6"/>
<path d="M567.555 285.001L602.827 273.423C602.827 273.423 615.807 299.402 601.698 315.781C587.589 332.159 540.748 425.346 540.748 425.346L526.639 418.569L546.956 359.268L569.53 304.485L567.555 285.001Z" fill="#2F2E41"/>
<path d="M601.698 306.179L615.243 365.48L643.46 411.227L628.787 419.698L589.283 365.48L576.302 323.687L601.698 306.179Z" fill="#2F2E41"/>
<path d="M515.917 425.911H506.143C506.143 425.911 494.738 421.393 492.065 425.911C489.392 430.429 503.991 443.243 503.991 443.243C503.991 443.243 524.382 454.714 527.204 454.149C530.026 453.585 531.154 446.807 531.154 446.807L534.54 438.901L529.461 440.595C529.461 440.595 522.689 436.642 524.382 429.864L515.917 425.911Z" fill="#2F2E41"/>
<path d="M649.104 424.217V418.569L655.665 424.217C655.665 424.217 666.599 428.17 658.133 436.642C649.668 445.113 638.945 454.149 638.945 454.149C638.945 454.149 622.015 458.668 620.886 453.585C619.757 448.502 620.886 446.445 620.886 446.445L627.094 443.419L632.738 428.735L641.767 429.864L649.104 424.217Z" fill="#2F2E41"/>
<path d="M581.946 193.225L576.867 192.661L567.555 183.342C567.555 183.342 559.09 187.86 559.09 184.471C559.09 168.658 568.684 169.223 576.585 168.093C584.485 166.964 583.639 166.681 586.179 170.917C587.34 172.854 591.54 174.023 591.54 174.023C591.54 174.023 599.441 163.293 603.391 176.282C607.342 189.272 602.263 229.371 606.213 232.759C610.164 236.148 589.992 239.532 592.177 226.262C594.362 212.992 598.312 192.661 596.055 188.142C593.797 183.624 593.233 184.754 593.233 184.754C596.03 183.611 597.858 203.745 587.31 204.73L587.025 194.92C587.025 194.92 585.332 189.837 581.946 193.225Z" fill="#2F2E41"/>
<path d="M574.891 212.71L591.822 205.933L614.396 273.705L567.95 272.012L563.768 251.784C563.768 251.784 559.685 241.256 563.071 235.044C566.457 228.831 574.891 212.71 574.891 212.71Z" fill="#424242"/>
<path d="M618.948 326.238C615.574 326.528 612.469 322.461 612.014 317.155C611.814 314.832 612.156 312.657 612.886 310.921L612.662 307.866L607.959 266.606C607.959 266.606 599.205 232.856 599.723 227.394C600.241 221.932 601.059 220.482 601.059 220.482L607.205 221.123L622.029 270.105L622.202 305.277L622.311 310.111C623.326 311.697 624.033 313.782 624.233 316.105C624.688 321.411 622.322 325.948 618.948 326.238Z" fill="#FFB6B6"/>
<path d="M590.411 211.298C590.411 211.298 595.491 207.345 601.698 209.039C607.906 210.733 623.457 268.905 623.457 268.905L609.035 278.506L590.411 211.298Z" fill="#424242"/>
<path d="M296.399 309.071H228.699C224.567 309.071 221.206 305.707 221.206 301.572V294.796C221.206 290.661 224.567 287.298 228.699 287.298H296.399C300.531 287.298 303.892 290.661 303.892 294.796V301.572C303.892 305.707 300.531 309.071 296.399 309.071Z" fill="#424242"/>
<path d="M556.569 87.6332H488.869C484.737 87.6332 481.375 84.2692 481.375 80.1345V73.3585C481.375 69.2238 484.737 65.8607 488.869 65.8607H556.569C560.7 65.8607 564.062 69.2238 564.062 73.3585V80.1345C564.062 84.2692 560.7 87.6332 556.569 87.6332Z" fill="#424242"/>
<path d="M396.832 309.571H329.132C324.725 309.571 321.139 305.982 321.139 301.572V294.796C321.139 290.385 324.725 286.797 329.132 286.797H396.832C401.24 286.797 404.826 290.385 404.826 294.796V301.572C404.826 305.982 401.24 309.571 396.832 309.571ZM329.132 288.8C325.828 288.8 323.14 291.489 323.14 294.796V301.572C323.14 304.878 325.828 307.568 329.132 307.568H396.832C400.136 307.568 402.824 304.878 402.824 301.572V294.796C402.824 291.489 400.136 288.8 396.832 288.8H329.132Z" fill="#424242"/>
<path d="M479.875 180.391H123.642C120.331 180.391 117.638 177.696 117.638 174.383C117.638 171.07 120.331 168.375 123.642 168.375H479.875C483.185 168.375 485.879 171.07 485.879 174.383C485.879 177.696 483.185 180.391 479.875 180.391Z" fill="#E6E6E6"/>
<path d="M100.956 82.7553H55.9265C52.6158 82.7553 49.9226 80.0601 49.9226 76.7469C49.9226 73.4337 52.6158 70.7385 55.9265 70.7385H100.956C104.267 70.7385 106.96 73.4337 106.96 76.7469C106.96 80.0601 104.267 82.7553 100.956 82.7553Z" fill="#E6E6E6"/>
<path d="M370.132 82.7553H325.102C321.792 82.7553 319.098 80.0601 319.098 76.7469C319.098 73.4337 321.792 70.7385 325.102 70.7385H370.132C373.442 70.7385 376.136 73.4337 376.136 76.7469C376.136 80.0601 373.442 82.7553 370.132 82.7553Z" fill="#E6E6E6"/>
<path d="M455.187 82.7553H410.158C406.847 82.7553 404.154 80.0601 404.154 76.7469C404.154 73.4337 406.847 70.7385 410.158 70.7385H455.187C458.498 70.7385 461.191 73.4337 461.191 76.7469C461.191 80.0601 458.498 82.7553 455.187 82.7553Z" fill="#E6E6E6"/>
<path d="M400.823 242.478H202.694C199.383 242.478 196.69 239.783 196.69 236.469C196.69 233.156 199.383 230.461 202.694 230.461H400.823C404.134 230.461 406.827 233.156 406.827 236.469C406.827 239.783 404.134 242.478 400.823 242.478Z" fill="#E6E6E6"/>
<path d="M409.457 373.917H194.06C192.058 373.917 190.43 372.287 190.43 370.284C190.43 368.28 192.058 366.651 194.06 366.651H409.457C411.458 366.651 413.087 368.28 413.087 370.284C413.087 372.287 411.458 373.917 409.457 373.917Z" fill="#E6E6E6"/>
<path d="M411.461 21.4257H196.065C194.063 21.4257 192.435 19.7961 192.435 17.7928C192.435 15.7894 194.063 14.1598 196.065 14.1598H411.462C413.463 14.1598 415.092 15.7894 415.092 17.7928C415.092 19.7961 413.463 21.4257 411.461 21.4257Z" fill="white"/>
</g>
<defs>
<clipPath id="clip0_151_8">
<rect width="720" height="456" fill="white"/>
</clipPath>
</defs>
</svg>
