<svg width="150" height="158" viewBox="0 0 150 158" fill="none" xmlns="http://www.w3.org/2000/svg">
<path d="M73.6875 157.5C70.6875 157.5 67.8125 156.938 65.0625 155.812C62.3125 154.688 59.875 153.062 57.75 150.938L19.5 112.5L25.125 106.688C27.125 104.687 29.4688 103.344 32.1562 102.656C34.8437 101.969 37.5 102 40.125 102.75L52.5 106.312V45C52.5 42.875 53.2188 41.0937 54.6562 39.6562C56.0937 38.2188 57.875 37.5 60 37.5C62.125 37.5 63.9063 38.2188 65.3438 39.6562C66.7812 41.0937 67.5 42.875 67.5 45V126.188L49.3125 121.125L68.4375 140.25C69.0625 140.875 69.8438 141.406 70.7812 141.844C71.7188 142.281 72.6875 142.5 73.6875 142.5H105C109.125 142.5 112.656 141.031 115.594 138.094C118.531 135.156 120 131.625 120 127.5V97.5C120 95.375 120.719 93.5937 122.156 92.1562C123.594 90.7188 125.375 90 127.5 90C129.625 90 131.406 90.7188 132.844 92.1562C134.281 93.5937 135 95.375 135 97.5V127.5C135 135.75 132.063 142.812 126.188 148.688C120.312 154.563 113.25 157.5 105 157.5H73.6875ZM75 105V75C75 72.875 75.7188 71.0937 77.1562 69.6562C78.5937 68.2188 80.375 67.5 82.5 67.5C84.625 67.5 86.4063 68.2188 87.8438 69.6562C89.2812 71.0937 90 72.875 90 75V105H75ZM97.5 105V82.5C97.5 80.375 98.2188 78.5937 99.6562 77.1562C101.094 75.7188 102.875 75 105 75C107.125 75 108.906 75.7188 110.344 77.1562C111.781 78.5937 112.5 80.375 112.5 82.5V105H97.5ZM0 45V7.5H11.25V22.6875C20.25 15.3125 30.1875 9.6875 41.0625 5.8125C51.9375 1.9375 63.25 0 75 0C93.25 0 109.375 4.1875 123.375 12.5625C137.375 20.9375 146.25 31.75 150 45H138.188C133.437 34.5 125.406 26.25 114.094 20.25C102.781 14.25 89.75 11.25 75 11.25C64 11.25 53.4375 13.1875 43.3125 17.0625C33.1875 20.9375 24 26.5 15.75 33.75H37.5V45H0Z" fill="#E8EAED"/>
</svg>
