<svg width="144" height="144" viewBox="0 0 144 144" fill="none" xmlns="http://www.w3.org/2000/svg">
<path d="M142.828 21.2343L75.5129 141.607C74.1219 144.092 70.5512 144.107 69.1414 141.635L0.49062 21.2483C-1.04805 18.5507 1.25468 15.287 4.3121 15.8319L71.6996 27.8753C72.1296 27.9538 72.5703 27.9538 73.0004 27.8753L138.977 15.8507C142.021 15.2964 144.338 18.5331 142.828 21.2343Z" fill="url(#paint0_linear_261_10)"/>
<path d="M103.797 0.0352578L53.9855 9.79463C53.5879 9.87232 53.2274 10.0799 52.9606 10.3847C52.6937 10.6895 52.5357 11.0743 52.5113 11.4786L49.4445 63.238C49.428 63.5218 49.4778 63.8056 49.59 64.0669C49.7022 64.3281 49.8737 64.5597 50.0908 64.7432C50.308 64.9267 50.5649 65.0571 50.8412 65.1242C51.1175 65.1912 51.4056 65.193 51.6828 65.1294L65.5531 61.9243C65.8518 61.8557 66.163 61.8631 66.458 61.946C66.7531 62.0289 67.0227 62.1846 67.2419 62.3987C67.4612 62.6129 67.6232 62.8787 67.7131 63.1717C67.8029 63.4647 67.8178 63.7756 67.7562 64.0759L63.6347 84.2544C63.5717 84.565 63.5904 84.8866 63.689 85.1878C63.7876 85.4889 63.9627 85.7593 64.1972 85.9725C64.4316 86.1857 64.7174 86.3344 65.0266 86.404C65.3358 86.4736 65.6577 86.4618 65.9609 86.3696L74.525 83.7646C75.8527 83.3614 77.13 84.5286 76.8511 85.888L70.3003 117.584C69.8925 119.567 72.5293 120.647 73.6285 118.948L74.3609 117.813L114.955 36.8017C115.637 35.4423 114.461 33.8954 112.974 34.1837L98.6949 36.9399C98.3876 36.9996 98.0702 36.9793 97.773 36.881C97.4758 36.7826 97.209 36.6095 96.998 36.3783C96.787 36.1471 96.639 35.8655 96.5682 35.5606C96.4974 35.2557 96.5062 34.9377 96.5937 34.6372L105.91 2.33799C105.998 2.0364 106.006 1.71734 105.935 1.41155C105.863 1.10576 105.714 0.823565 105.502 0.592164C105.289 0.360764 105.021 0.187962 104.722 0.0904183C104.424 -0.00712581 104.105 -0.0261231 103.797 0.0352578Z" fill="url(#paint1_linear_261_10)"/>
<defs>
<linearGradient id="paint0_linear_261_10" x1="-1.18727" y1="11.5307" x2="82.5945" y2="125.313" gradientUnits="userSpaceOnUse">
<stop stop-color="#41D1FF"/>
<stop offset="1" stop-color="#BD34FE"/>
</linearGradient>
<linearGradient id="paint1_linear_261_10" x1="67.8324" y1="2.68367" x2="82.9882" y2="106.65" gradientUnits="userSpaceOnUse">
<stop stop-color="#FFEA83"/>
<stop offset="0.083" stop-color="#FFDD35"/>
<stop offset="1" stop-color="#FFA800"/>
</linearGradient>
</defs>
</svg>
