<svg width="150" height="150" viewBox="0 0 150 150" fill="none" xmlns="http://www.w3.org/2000/svg">
<path d="M150 26.4831V123.192C150 127.957 147.036 132.196 142.572 133.771L109.486 149.302L112.487 108.6V41.0758L109.486 0.373779L142.572 15.9043C147.036 17.4799 150 21.7189 150 26.4831Z" fill="#29B6F6"/>
<path d="M18.7033 111.961L112.487 41.0755V4.88632C112.487 0.392225 106.927 -1.70852 103.952 1.66018L2.41496 94.4907C-0.96124 97.6043 -0.769922 102.995 2.81635 105.865C2.81635 105.865 7.78312 110.486 9.58001 111.769C12.341 113.739 15.9685 113.964 18.7033 111.961Z" fill="#0277BD"/>
<path d="M18.7033 37.7146L112.487 108.6V144.789C112.487 149.283 106.927 151.384 103.952 148.015L2.41496 55.1845C-0.96124 52.0709 -0.769922 46.6803 2.81635 43.8105C2.81635 43.8105 7.78312 39.1889 9.58001 37.9059C12.341 35.9364 15.9685 35.7114 18.7033 37.7146Z" fill="#0288D1"/>
</svg>
